<?xml version="1.0" encoding="utf-8"?>
<!-- Generator: Adobe Illustrator 27.0.0, SVG Export Plug-In . SVG Version: 6.00 Build 0)  -->
<svg version="1.1" id="Layer_1" xmlns="http://www.w3.org/2000/svg" xmlns:xlink="http://www.w3.org/1999/xlink" x="0px" y="0px"
	 viewBox="0 0 274.33 231.31" style="enable-background:new 0 0 274.33 231.31;" xml:space="preserve">
<style type="text/css">
	.st0{fill:#3765AC;}
	.st1{fill-rule:evenodd;clip-rule:evenodd;fill:#FFFFFF;}
	.st2{fill:#FFFFFF;}
	.st3{fill:#FFFFFF;stroke:#FFFFFF;stroke-width:0.61;stroke-miterlimit:3.86;}
	.st4{fill:#FFFFFF;stroke:#E96D24;stroke-width:4;stroke-linecap:round;stroke-linejoin:round;stroke-miterlimit:10;}
	.st5{fill:#E96D24;}
</style>
<path class="st4" d="M202.42,78.79h-99.55L88.52,66.72v12.06h-16.6c-12.09,0-21.99,9.89-21.99,21.99v26.89
	c0,12.09,9.89,21.99,21.99,21.99h130.5c12.09,0,21.99-9.89,21.99-21.99v-26.89C224.41,88.68,214.51,78.79,202.42,78.79z"/>
<g>
	<g>
		<path class="st5" d="M68.56,122.89c-0.54,0-0.95-0.15-1.23-0.46c-0.29-0.3-0.43-0.72-0.43-1.26v-15.31c0-0.55,0.14-0.98,0.43-1.27
			c0.29-0.29,0.7-0.44,1.23-0.44c0.54,0,0.95,0.15,1.23,0.44c0.29,0.29,0.43,0.72,0.43,1.27v15.31c0,0.54-0.14,0.96-0.42,1.26
			C69.53,122.74,69.11,122.89,68.56,122.89z"/>
		<path class="st5" d="M80.54,122.94c-0.76,0-1.53-0.06-2.29-0.17c-0.76-0.11-1.48-0.29-2.16-0.52c-0.68-0.23-1.28-0.52-1.82-0.87
			c-0.31-0.21-0.53-0.46-0.65-0.75s-0.16-0.58-0.12-0.87c0.04-0.29,0.16-0.54,0.34-0.75s0.41-0.35,0.69-0.4
			c0.28-0.05,0.58,0.03,0.91,0.23c0.76,0.45,1.57,0.78,2.42,0.99c0.85,0.21,1.74,0.31,2.68,0.31c1.37,0,2.37-0.23,2.99-0.69
			c0.62-0.46,0.94-1.05,0.94-1.78c0-0.61-0.22-1.08-0.66-1.43c-0.44-0.35-1.2-0.63-2.27-0.86l-2.86-0.6
			c-1.65-0.35-2.87-0.93-3.68-1.75s-1.21-1.91-1.21-3.26c0-0.85,0.17-1.62,0.52-2.31c0.35-0.69,0.84-1.29,1.47-1.79
			c0.63-0.5,1.39-0.89,2.26-1.16c0.88-0.27,1.84-0.4,2.9-0.4c1.04,0,2.03,0.13,2.96,0.39s1.78,0.64,2.52,1.14
			c0.28,0.19,0.46,0.42,0.56,0.7s0.12,0.55,0.06,0.82c-0.05,0.27-0.17,0.5-0.36,0.69c-0.19,0.19-0.43,0.3-0.71,0.34
			c-0.29,0.04-0.61-0.05-0.98-0.26c-0.64-0.36-1.29-0.62-1.95-0.78s-1.37-0.23-2.13-0.23c-0.8,0-1.48,0.11-2.05,0.34
			c-0.57,0.23-1.01,0.54-1.31,0.95s-0.46,0.89-0.46,1.44c0,0.62,0.21,1.12,0.62,1.5s1.13,0.66,2.13,0.87l2.83,0.6
			c1.72,0.36,2.99,0.94,3.83,1.72c0.84,0.78,1.26,1.82,1.26,3.12c0,0.83-0.17,1.59-0.51,2.26s-0.82,1.26-1.46,1.74
			s-1.39,0.86-2.27,1.12C82.65,122.81,81.65,122.94,80.54,122.94z"/>
		<path class="st5" d="M99.34,122.89c-0.54,0-0.95-0.15-1.23-0.46c-0.29-0.3-0.43-0.72-0.43-1.26v-15.31c0-0.55,0.14-0.98,0.43-1.27
			c0.29-0.29,0.7-0.44,1.23-0.44c0.54,0,0.95,0.15,1.23,0.44c0.29,0.29,0.43,0.72,0.43,1.27v15.31c0,0.54-0.14,0.96-0.42,1.26
			C100.31,122.74,99.9,122.89,99.34,122.89z"/>
		<path class="st5" d="M111.09,122.89c-0.54,0-0.95-0.15-1.23-0.46s-0.43-0.72-0.43-1.26v-14.04h-5.07c-0.45,0-0.8-0.13-1.05-0.38
			s-0.38-0.59-0.38-1.03c0-0.45,0.13-0.79,0.38-1.03c0.25-0.23,0.6-0.35,1.05-0.35h13.47c0.45,0,0.8,0.12,1.05,0.35
			c0.25,0.23,0.38,0.58,0.38,1.03c0,0.43-0.13,0.78-0.38,1.03c-0.25,0.25-0.6,0.38-1.05,0.38h-5.07v14.04
			c0,0.54-0.14,0.96-0.42,1.26C112.06,122.74,111.65,122.89,111.09,122.89z"/>
		<path class="st5" d="M133.3,122.89c-0.54,0-0.93-0.17-1.17-0.52c-0.24-0.35-0.32-0.82-0.23-1.43l2.18-13.81h-4.81
			c-0.47,0-0.83-0.1-1.09-0.31c-0.26-0.21-0.39-0.48-0.39-0.83c0-0.52,0.15-0.92,0.46-1.21c0.3-0.29,0.71-0.43,1.21-0.43h13.21
			c0.47,0,0.83,0.1,1.09,0.29c0.26,0.19,0.39,0.47,0.39,0.83c0,0.52-0.15,0.93-0.44,1.22c-0.29,0.29-0.7,0.44-1.22,0.44h-5.07
			l-2.24,14.09c-0.09,0.54-0.28,0.95-0.59,1.24S133.85,122.89,133.3,122.89z"/>
		<path class="st5" d="M145,122.89c-0.52,0-0.91-0.17-1.16-0.52c-0.25-0.35-0.33-0.83-0.22-1.46l2.37-14.9
			c0.09-0.55,0.29-0.97,0.62-1.25c0.33-0.28,0.77-0.42,1.33-0.42h5.46c2.03,0,3.57,0.45,4.62,1.35c1.05,0.9,1.57,2.14,1.57,3.72
			c0,1.33-0.3,2.44-0.9,3.3c-0.6,0.87-1.42,1.51-2.47,1.94c-1.05,0.43-2.24,0.63-3.58,0.61v-0.39h0.68c0.81,0,1.48,0.23,2,0.69
			c0.52,0.46,0.94,1.1,1.25,1.91l1.25,3.25c0.17,0.45,0.24,0.84,0.2,1.16c-0.04,0.32-0.2,0.57-0.46,0.74
			c-0.26,0.17-0.62,0.26-1.09,0.26c-0.45,0-0.81-0.12-1.08-0.35c-0.27-0.23-0.5-0.6-0.69-1.11l-1.66-4.37
			c-0.23-0.62-0.53-1.07-0.91-1.33c-0.38-0.26-0.92-0.39-1.61-0.39h-2.68l-0.91,5.88c-0.09,0.55-0.29,0.97-0.61,1.25
			S145.55,122.89,145,122.89z M148.22,112.88h4.42c1.18,0,2.09-0.27,2.74-0.82s0.98-1.34,0.98-2.38c0-0.9-0.28-1.58-0.83-2.03
			c-0.56-0.45-1.43-0.68-2.63-0.68h-3.74L148.22,112.88z"/>
		<path class="st5" d="M169.05,122.94c-1.16,0-2.21-0.17-3.13-0.51c-0.93-0.34-1.7-0.85-2.31-1.53c-0.62-0.68-1.04-1.54-1.27-2.57
			c-0.23-1.03-0.24-2.24-0.01-3.63l1.43-9c0.09-0.54,0.28-0.93,0.59-1.18c0.3-0.25,0.71-0.38,1.23-0.38c0.55,0,0.96,0.16,1.21,0.47
			c0.25,0.31,0.33,0.77,0.25,1.38l-1.4,8.94c-0.26,1.68-0.08,2.96,0.53,3.83c0.62,0.88,1.66,1.31,3.13,1.31
			c1.42,0,2.54-0.37,3.37-1.11c0.82-0.74,1.37-1.9,1.62-3.5l1.56-9.78c0.09-0.54,0.28-0.93,0.58-1.18c0.3-0.25,0.71-0.38,1.23-0.38
			c0.54,0,0.93,0.16,1.18,0.47c0.25,0.31,0.33,0.77,0.25,1.38l-1.48,9.44c-0.26,1.63-0.73,3-1.42,4.12s-1.61,1.96-2.78,2.54
			C172.23,122.66,170.78,122.94,169.05,122.94z"/>
		<path class="st5" d="M182.31,122.68c-0.62,0-1.08-0.16-1.35-0.49c-0.28-0.33-0.37-0.8-0.29-1.4l2.34-14.82
			c0.09-0.54,0.29-0.94,0.61-1.21c0.32-0.27,0.75-0.4,1.29-0.4h9.18c0.45,0,0.8,0.09,1.04,0.27c0.24,0.18,0.36,0.45,0.36,0.79
			c0,0.5-0.14,0.89-0.43,1.17c-0.29,0.28-0.66,0.42-1.13,0.42h-7.88l-0.81,5.04h7.07c0.45,0,0.79,0.09,1.03,0.27
			c0.23,0.18,0.35,0.45,0.35,0.79c0,0.5-0.14,0.89-0.43,1.17c-0.29,0.28-0.66,0.42-1.13,0.42h-7.31l-0.86,5.33h7.62
			c0.45,0,0.8,0.09,1.04,0.27s0.36,0.45,0.36,0.79c0,0.5-0.14,0.89-0.43,1.17s-0.66,0.42-1.13,0.42H182.31z"/>
		<path class="st5" d="M200.66,117.38c-0.38,0-0.66-0.12-0.83-0.35c-0.17-0.23-0.23-0.55-0.16-0.95c0.09-0.54,0.21-1.03,0.38-1.48
			c0.16-0.45,0.42-0.9,0.77-1.35c0.35-0.45,0.84-0.95,1.48-1.51c0.45-0.4,0.83-0.75,1.13-1.07c0.3-0.31,0.53-0.63,0.69-0.95
			c0.16-0.32,0.23-0.68,0.23-1.08c0-0.5-0.17-0.92-0.51-1.25s-0.88-0.49-1.62-0.49c-0.64,0-1.24,0.09-1.81,0.27
			c-0.56,0.18-1.13,0.44-1.7,0.77c-0.36,0.21-0.69,0.3-0.99,0.27c-0.29-0.03-0.53-0.13-0.71-0.33c-0.18-0.19-0.29-0.42-0.34-0.69
			c-0.04-0.27,0-0.54,0.12-0.82c0.12-0.28,0.35-0.53,0.68-0.75c0.76-0.5,1.63-0.88,2.6-1.14s1.91-0.39,2.81-0.39
			c1,0,1.86,0.18,2.57,0.55s1.26,0.85,1.64,1.46c0.38,0.61,0.57,1.28,0.57,2.03c0,0.73-0.15,1.39-0.44,1.99
			c-0.29,0.6-0.68,1.14-1.16,1.61s-1,0.91-1.57,1.31c-0.61,0.42-1.09,0.82-1.46,1.21c-0.36,0.39-0.65,0.77-0.84,1.14
			s-0.36,0.76-0.48,1.16c-0.07,0.26-0.18,0.46-0.34,0.61C201.21,117.3,200.97,117.38,200.66,117.38z M199.93,122.81
			c-0.59,0-1.06-0.18-1.42-0.55s-0.53-0.83-0.53-1.4c0-0.55,0.18-1.01,0.53-1.36s0.83-0.53,1.42-0.53c0.61,0,1.08,0.18,1.42,0.53
			s0.51,0.81,0.51,1.36c0,0.57-0.17,1.04-0.51,1.4S200.54,122.81,199.93,122.81z"/>
	</g>
</g>
</svg>
